<svg xmlns="http://www.w3.org/2000/svg" xmlns:xlink="http://www.w3.org/1999/xlink" viewBox="0 0 588 525.14"><defs><style>.cls-1{fill:url(#Gradiente_sem_nome_27);}.cls-2{fill:url(#Gradiente_sem_nome_27-2);}.cls-3{fill:url(#Gradiente_sem_nome_27-3);}.cls-4{fill:url(#Gradiente_sem_nome_27-4);}.cls-5{fill:url(#Gradiente_sem_nome_27-5);}.cls-6{fill:url(#Gradiente_sem_nome_27-6);}.cls-7{fill:url(#Gradiente_sem_nome_27-7);}.cls-8{fill:url(#Gradiente_sem_nome_27-8);}.cls-9{fill:url(#Gradiente_sem_nome_27-9);}.cls-10{fill:url(#Gradiente_sem_nome_27-10);}.cls-11{fill:url(#Gradiente_sem_nome_27-11);}.cls-12{fill:url(#Gradiente_sem_nome_27-12);}.cls-13{fill:url(#Gradiente_sem_nome_27-13);}</style><linearGradient id="Gradiente_sem_nome_27" y1="260" x2="234.6" y2="260" gradientUnits="userSpaceOnUse"><stop offset="0" stop-color="#2aeaff"/><stop offset="1" stop-color="#007bff"/></linearGradient><linearGradient id="Gradiente_sem_nome_27-2" x1="83.15" y1="262.48" x2="241.5" y2="262.48" xlink:href="#Gradiente_sem_nome_27"/><linearGradient id="Gradiente_sem_nome_27-3" x1="200" y1="199.5" x2="256" y2="199.5" xlink:href="#Gradiente_sem_nome_27"/><linearGradient id="Gradiente_sem_nome_27-4" x1="332" y1="197.57" x2="388" y2="197.57" xlink:href="#Gradiente_sem_nome_27"/><linearGradient id="Gradiente_sem_nome_27-5" x1="266" y1="265.5" x2="322" y2="265.5" xlink:href="#Gradiente_sem_nome_27"/><linearGradient id="Gradiente_sem_nome_27-6" x1="200" y1="331.5" x2="256" y2="331.5" xlink:href="#Gradiente_sem_nome_27"/><linearGradient id="Gradiente_sem_nome_27-7" x1="332.42" y1="333.57" x2="388" y2="333.57" xlink:href="#Gradiente_sem_nome_27"/><linearGradient id="Gradiente_sem_nome_27-8" x1="353.33" y1="265.14" x2="588" y2="265.14" xlink:href="#Gradiente_sem_nome_27"/><linearGradient id="Gradiente_sem_nome_27-9" x1="346.43" y1="267.61" x2="504.78" y2="267.61" xlink:href="#Gradiente_sem_nome_27"/><linearGradient id="Gradiente_sem_nome_27-10" x1="254.24" y1="230.93" x2="211.39" y2="180.36" xlink:href="#Gradiente_sem_nome_27"/><linearGradient id="Gradiente_sem_nome_27-11" x1="324.94" y1="232.49" x2="370.65" y2="189.63" xlink:href="#Gradiente_sem_nome_27"/><linearGradient id="Gradiente_sem_nome_27-12" x1="330.54" y1="299.46" x2="363.11" y2="334.88" xlink:href="#Gradiente_sem_nome_27"/><linearGradient id="Gradiente_sem_nome_27-13" x1="258.61" y1="298.38" x2="218.04" y2="341.81" xlink:href="#Gradiente_sem_nome_27"/></defs><g id="Camada_2" data-name="Camada 2"><g id="Camada_1-2" data-name="Camada 1"><path class="cls-1" d="M224.26,515.75A64,64,0,0,1,200.5,520c-29,0-44-16-44-16s-79-31-80-148c-.28-32.7-18.68-48.94-37.86-57a103,103,0,0,0-26.37-6.84,33,33,0,0,1,.47-51.74,64.58,64.58,0,0,0,26.93-6.27C55.32,226.41,69.57,209.7,71.5,175c5-90,97.42-157,97.42-157S183.5,0,208.5,0c12.68,0,21,4.63,26.1,9.2-43.7,23.13-145,93.56-151.17,251.73C76.81,429.49,187.4,497.75,224.26,515.75Z"/><path class="cls-2" d="M241.5,504s-5.26,7-17.24,11.75c-36.86-18-147.45-86.26-140.83-254.82C89.64,102.76,190.9,32.33,234.6,9.2a29.09,29.09,0,0,1,6.9,8.8s-106,123-123,243S241.5,504,241.5,504Z"/><polygon class="cls-3" points="256 171.5 256 173.73 201.11 227.5 200 227.5 200 171.5 256 171.5"/><polygon class="cls-4" points="388 171.5 388 223.65 332 171.73 332 171.5 388 171.5"/><rect class="cls-5" x="266" y="237.5" width="56" height="56"/><polygon class="cls-6" points="256 357.89 256 359.5 200 359.5 200 303.5 200.85 303.5 256 357.89"/><polygon class="cls-7" points="388 307.63 388 359.5 332.42 359.5 388 307.63"/><path class="cls-8" d="M588,272.5a32.85,32.85,0,0,1-11.07,24.66,102.65,102.65,0,0,0-29,7.59c-18.69,8.21-36.25,24.45-36.52,56.39-1,117-80,148-80,148s-15,16-44,16a64,64,0,0,1-23.76-4.25c36.86-18,147.45-86.26,140.83-254.82C498.29,107.9,397,37.47,353.33,14.34c5.11-4.57,13.42-9.2,26.1-9.2,25,0,39.58,18,39.58,18s92.42,67,97.42,157c2,35.67,17,52.33,33.14,59.8a64.76,64.76,0,0,0,24.48,5.6,33.2,33.2,0,0,1,11.79,15.19A32.8,32.8,0,0,1,588,272.5Z"/><path class="cls-9" d="M363.67,520.89c-12-4.73-17.24-11.75-17.24-11.75s140-123,123-243-123-243-123-243a29.09,29.09,0,0,1,6.9-8.8c43.7,23.13,145,93.56,151.17,251.73C511.12,434.63,400.53,502.89,363.67,520.89Z"/><polygon class="cls-10" points="256 173.73 256 227.5 201.11 227.5 256 173.73"/><polygon class="cls-11" points="388 223.65 388 227.5 332 227.5 332 171.73 388 223.65"/><polygon class="cls-12" points="388 303.5 388 307.63 332.42 359.5 332 359.5 332 303.5 388 303.5"/><polygon class="cls-13" points="256 303.5 256 357.89 200.85 303.5 256 303.5"/></g></g></svg>